<?xml version="1.0" encoding="UTF-8"?>
<svg width="34px" height="25px" viewBox="0 0 34 25" version="1.1" xmlns="http://www.w3.org/2000/svg" xmlns:xlink="http://www.w3.org/1999/xlink">
    <!-- Generator: Sketch 60 (88103) - https://sketch.com -->
    <title>Group 10</title>
    <desc>Created with Sketch.</desc>
    <defs>
        <polygon id="path-1" points="0.000313697767 0.0776785714 33.6984737 0.0776785714 33.6984737 25 0.000313697767 25"></polygon>
    </defs>
    <g id="Welcome" stroke="none" stroke-width="1" fill="none" fill-rule="evenodd">
        <g id="Desktop-HD" transform="translate(-767.000000, -738.000000)">
            <g id="Group-10" transform="translate(767.000000, 738.000000)">
                <path d="M26.3519587,2.50477307 C25.1934618,1.74629667 24.1276446,1.95786242 22.3408859,2.39855126 L21.9862077,2.48633788 C20.8473161,2.78481238 19.6362413,2.96565282 18.3529832,3.15878339 L17.1472552,3.34225742 L16.9191205,3.32031077 C15.1492937,3.14561539 13.615622,2.87962193 12.0926442,2.48019281 L11.7602447,2.39767339 C10.7648285,2.16416098 10.0109144,2 9.36750301,2 C8.7802342,2 8.28564514,2.13694713 7.78125342,2.48546001 C3.801371,5.02249333 1.71429429,11.8935521 2.03154421,16.8245265 C2.23829135,20.2833194 3.15350389,22.5174889 3.9501933,22.9397425 C4.41270091,23.1653541 5.20493455,22.7150087 5.77794494,22.2909994 C6.3349146,21.8634785 7.35439187,20.6564125 8.09761219,19.774157 L8.33020272,19.498507 C8.80073069,18.9199932 9.09837527,18.5556787 9.33007465,18.3274335 C10.8592906,16.8218929 13.292134,16.0572715 16.5617687,16.0572715 C19.1692779,16.0572715 22.8274546,16.7121597 24.5545062,18.553923 L25.1275166,19.1157573 C25.4545691,19.4669038 25.7682545,19.8241953 26.100654,20.2051893 C26.8073371,21.0110705 27.6860124,22.0153494 28.1904041,22.4130228 C28.6110276,22.7448562 29.1216574,22.9055057 29.7499192,22.9055057 C29.9210203,22.9055057 30.0056796,22.8791697 30.1099444,22.8273756 C30.8620762,22.4279465 31.7763976,20.1955328 31.9813624,16.7455186 C32.2210822,11.8619489 30.1375701,5.01898187 26.3519587,2.50477307" id="Fill-1" fill="#FFFFFF"></path>
                <g id="Group-5">
                    <mask id="mask-2" fill="white">
                        <use xlink:href="#path-1"></use>
                    </mask>
                    <g id="Clip-4"></g>
                    <path d="M30.0099211,21.6073214 C29.8309737,22.05375 29.5625526,22.2323214 29.2932368,22.2323214 C28.2204474,22.41 26.6090263,20.5358929 25.3572895,18.8385714 C24.4625526,17.67875 23.9248158,17.3216071 23.2090263,16.9644643 C21.8669211,16.16 18.7353421,15.2671429 16.7669211,15.2671429 L16.4099211,15.2671429 C14.6204474,15.2671429 12.1151842,15.3573214 10.4151842,16.5180357 C9.69939474,16.9644643 8.62571053,18.1251786 7.28360526,19.8216071 L7.19413158,19.9108929 C6.38886842,20.8930357 5.22571053,22.3216071 4.42044737,22.2323214 C4.15202632,22.2323214 3.88360526,21.9635714 3.70465789,21.6073214 C2.45202632,19.285 2.27307895,15.0894643 3.25728947,10.9823214 C4.15202632,7.23142857 5.76255263,4.28589286 7.6415,3.12517857 C8.89323684,2.32071429 10.5037632,2.76714286 11.9362368,3.12517857 C12.4721842,3.30375 13.0993947,3.39303571 13.6353421,3.48232143 C15.8721842,3.83946429 18.1090263,3.83946429 20.1678158,3.48232143 C20.7046579,3.39303571 21.2406053,3.21357143 21.7783421,3.12517857 C23.2993947,2.76714286 24.9099211,2.32071429 26.1616579,3.12517857 C28.0415,4.28589286 29.6520263,7.23142857 30.5467632,10.9823214 C31.4415,15.0894643 31.2616579,19.285 30.0099211,21.6073214 M27.2353421,0.893035714 C25.3572895,-0.357857143 23.5678158,0.0885714286 21.7783421,0.535 L21.4195526,0.625178571 C20.0774474,0.981428571 18.6467632,1.16089286 16.9458684,1.42785714 C15.1563947,1.25017857 13.7257105,0.981428571 12.3836053,0.625178571 L12.0248158,0.535 C10.1467632,0.0885714286 8.35728947,-0.357857143 6.56781579,0.893035714 C2.00465789,3.83946429 -0.321657895,11.42875 0.0362368421,17.0528571 C0.125710526,18.5716071 0.573078947,23.4823214 2.89939474,24.7323214 C3.97307895,25.2680357 5.22571053,25.0001786 6.65639474,23.92875 C7.46255263,23.3028571 8.62571053,21.8751786 9.52044737,20.80375 C9.87834211,20.3573214 10.2353421,19.9108929 10.4151842,19.7314286 C11.5774474,18.5716071 13.5467632,17.9457143 16.4099211,17.9457143 C19.2730789,17.9457143 22.0467632,18.7501786 23.1204474,19.9108929 C23.2090263,20.0001786 23.4774474,20.2680357 23.7467632,20.5358929 C24.6415,21.5171429 26.0730789,23.3028571 26.9678158,24.0180357 C27.8625526,24.7323214 28.8458684,24.9108929 29.6520263,24.9108929 C30.0993947,24.9108929 30.4572895,24.8216071 30.8142895,24.6421429 C33.1415,23.3930357 33.5888684,18.4823214 33.6783421,16.9644643 C33.9458684,11.42875 31.6204474,3.83946429 27.2353421,0.893035714" id="Fill-3" fill="#001B4D" mask="url(#mask-2)"></path>
                </g>
                <path d="M26.9023716,9.50949977 C26.8056473,8.45817359 26.3175055,7.4077331 25.4397542,6.73902942 C24.562003,6.07032574 23.5866234,5.87901448 22.5145194,6.07032574 C20.4670359,6.45206254 18.9058861,8.36340366 19.0044184,10.3695147 C19.0044184,11.4199552 19.4916563,12.3756258 20.2717791,13.0443294 C20.9542737,13.6182632 21.8320249,14 22.7088722,14 L23.0993856,14 C25.1477731,13.8086887 26.9023716,11.8982333 27,9.79646665 C26.9023716,9.70081103 26.9023716,9.6051554 26.9023716,9.50949977" id="Fill-6" fill="#001B4D"></path>
                <polygon id="Fill-8" fill="#001B4D" points="14 7.56416004 11.4361273 7.56416004 11.4361273 5 8.56476916 5 8.56476916 7.56416004 6 7.56416004 6 10.43584 8.56476916 10.43584 8.56476916 13 11.4361273 13 11.4361273 10.43584 14 10.43584"></polygon>
            </g>
        </g>
    </g>
</svg>