<?xml version="1.0" encoding="UTF-8"?>
<svg width="254px" height="53px" viewBox="0 0 254 53" version="1.1" xmlns="http://www.w3.org/2000/svg" xmlns:xlink="http://www.w3.org/1999/xlink">
    <!-- Generator: Sketch 60.1 (88133) - https://sketch.com -->
    <title>logo_gio3_Prancheta 1 Copy</title>
    <desc>Created with Sketch.</desc>
    <defs>
        <linearGradient x1="50.0277756%" y1="106.553397%" x2="50.0277756%" y2="10.8483573%" id="linearGradient-1">
            <stop stop-color="#EB820D" offset="0%"></stop>
            <stop stop-color="#FFE838" offset="96%"></stop>
        </linearGradient>
        <linearGradient x1="49.999484%" y1="96.5818244%" x2="49.999484%" y2="-10.8072703%" id="linearGradient-2">
            <stop stop-color="#00A7FF" offset="0%"></stop>
            <stop stop-color="#F4FAFF" offset="100%"></stop>
        </linearGradient>
        <linearGradient x1="50.0095138%" y1="105.994633%" x2="50.0095138%" y2="10.3357185%" id="linearGradient-3">
            <stop stop-color="#EB820D" offset="0%"></stop>
            <stop stop-color="#FFE838" offset="96%"></stop>
        </linearGradient>
        <linearGradient x1="49.9835885%" y1="4.40321806%" x2="49.9835885%" y2="76.6565802%" id="linearGradient-4">
            <stop stop-color="#F4FAFF" offset="0%"></stop>
            <stop stop-color="#F4FAFF" stop-opacity="0" offset="13%"></stop>
            <stop stop-color="#F4FAFF" offset="98%"></stop>
        </linearGradient>
        <linearGradient x1="49.9660091%" y1="103.544665%" x2="49.9660091%" y2="26.0607427%" id="linearGradient-5">
            <stop stop-color="#EB820D" offset="0%"></stop>
            <stop stop-color="#FFE838" offset="96%"></stop>
        </linearGradient>
        <linearGradient x1="50.0894556%" y1="93.8339844%" x2="50.0894556%" y2="-58.9765625%" id="linearGradient-6">
            <stop stop-color="#00A7FF" offset="0%"></stop>
            <stop stop-color="#F4FAFF" offset="100%"></stop>
        </linearGradient>
        <linearGradient x1="50.0204466%" y1="94.1090183%" x2="50.0204466%" y2="-39.8618721%" id="linearGradient-7">
            <stop stop-color="#00A7FF" offset="0%"></stop>
            <stop stop-color="#F4FAFF" offset="100%"></stop>
        </linearGradient>
        <linearGradient x1="49.9939318%" y1="42.8502571%" x2="49.9939318%" y2="90.534383%" id="linearGradient-8">
            <stop stop-color="#F4FAFF" stop-opacity="0.18" offset="18%"></stop>
            <stop stop-color="#F9F27A" offset="98%"></stop>
        </linearGradient>
        <linearGradient x1="49.9997371%" y1="42.6833123%" x2="49.9997371%" y2="87.3454488%" id="linearGradient-9">
            <stop stop-color="#F4FAFF" stop-opacity="0.18" offset="18%"></stop>
            <stop stop-color="#F9F27A" offset="98%"></stop>
        </linearGradient>
        <linearGradient x1="49.9442443%" y1="52.2975723%" x2="49.9442443%" y2="88.0692037%" id="linearGradient-10">
            <stop stop-color="#F4FAFF" stop-opacity="0.18" offset="18%"></stop>
            <stop stop-color="#F9F27A" offset="98%"></stop>
        </linearGradient>
        <linearGradient x1="50.0894556%" y1="4.22931937%" x2="50.0894556%" y2="94.64363%" id="linearGradient-11">
            <stop stop-color="#F4FAFF" offset="0%"></stop>
            <stop stop-color="#F4FAFF" stop-opacity="0.12" offset="11%"></stop>
            <stop stop-color="#F4FAFF" offset="98%"></stop>
        </linearGradient>
        <linearGradient x1="50.0172774%" y1="18.3453612%" x2="50.0172774%" y2="90.591672%" id="linearGradient-12">
            <stop stop-color="#F4FAFF" offset="0%"></stop>
            <stop stop-color="#F4FAFF" stop-opacity="0.13" offset="13%"></stop>
            <stop stop-color="#F4FAFF" offset="98%"></stop>
        </linearGradient>
        <linearGradient x1="50.0478701%" y1="165.81911%" x2="50.0478701%" y2="-40.7326684%" id="linearGradient-13">
            <stop stop-color="#00A7FF" offset="0%"></stop>
            <stop stop-color="#F4FAFF" offset="100%"></stop>
        </linearGradient>
        <linearGradient x1="49.9873418%" y1="7.2176444%" x2="49.9873418%" y2="82.2068172%" id="linearGradient-14">
            <stop stop-color="#F4FAFF" offset="0%"></stop>
            <stop stop-color="#F4FAFF" stop-opacity="0.15" offset="14%"></stop>
            <stop stop-color="#F4FAFF" stop-opacity="0.5" offset="70%"></stop>
        </linearGradient>
        <linearGradient x1="50.0007777%" y1="130.630859%" x2="50.0007777%" y2="64.9219982%" id="linearGradient-15">
            <stop stop-color="#EB820D" offset="0%"></stop>
            <stop stop-color="#EF9415" offset="70.63%"></stop>
        </linearGradient>
        <linearGradient x1="50.0586735%" y1="241.877551%" x2="50.0586735%" y2="-66.5803571%" id="linearGradient-16">
            <stop stop-color="#EB820D" offset="0%"></stop>
            <stop stop-color="#EF9415" offset="70.63%"></stop>
        </linearGradient>
        <linearGradient x1="49.9732143%" y1="609.096939%" x2="49.9732143%" y2="300.639031%" id="linearGradient-17">
            <stop stop-color="#EB820D" offset="0%"></stop>
            <stop stop-color="#EF9415" offset="70.63%"></stop>
        </linearGradient>
        <linearGradient x1="50.0007777%" y1="130.634935%" x2="50.0007777%" y2="64.9263456%" id="linearGradient-18">
            <stop stop-color="#EB820D" offset="0%"></stop>
            <stop stop-color="#FCD731" offset="100%"></stop>
        </linearGradient>
        <linearGradient x1="49.9630102%" y1="241.896684%" x2="49.9630102%" y2="-66.559949%" id="linearGradient-19">
            <stop stop-color="#EB820D" offset="0%"></stop>
            <stop stop-color="#FFE838" offset="96%"></stop>
        </linearGradient>
        <linearGradient x1="49.9732143%" y1="609.090561%" x2="49.9732143%" y2="300.632653%" id="linearGradient-20">
            <stop stop-color="#EB820D" offset="0%"></stop>
            <stop stop-color="#FCD731" offset="100%"></stop>
        </linearGradient>
    </defs>
    <g id="Welcome" stroke="none" stroke-width="1" fill="none" fill-rule="evenodd">
        <g id="Desktop-HD-Copy-18" transform="translate(-601.000000, -140.000000)" fill-rule="nonzero">
            <g id="logo_gio3_Prancheta-1-Copy" transform="translate(601.000000, 140.000000)">
                <path d="M93.42,50.21 C88.72,50.21 84.91,46.4 84.91,41.7 L84.91,19.04 C84.91,14.34 88.72,10.54 93.42,10.53 C95.33,10.57 97.16,11.28 98.6,12.53 C100.74,11.54 103.06,11.01 105.42,10.97 C106.54,10.95 107.65,11.12 108.72,11.46 C112.63,12.53 115.33,16.09 115.29,20.15 C115.28,24.86 111.47,28.67 106.76,28.68 L106.19,28.68 C105.2,28.65 104.2,28.71 103.22,28.87 C101.99,29.16 101.88,30.98 101.92,32.04 C101.92,32.17 101.92,32.26 101.92,32.34 L101.92,41.69 C101.92,46.39 98.12,50.2 93.42,50.21 Z M93.42,16.5 C92.02,16.5 90.88,17.64 90.88,19.04 L90.88,19.04 L90.88,41.7 C90.81,43.1 91.89,44.3 93.29,44.37 C94.69,44.44 95.89,43.36 95.96,41.96 C95.96,41.87 95.96,41.79 95.96,41.7 L95.96,32.29 C95.76,27.49 98.02,23.96 101.86,23.07 C103.28,22.8 104.73,22.69 106.18,22.73 L106.78,22.73 C108.19,22.72 109.33,21.57 109.33,20.16 C109.33,18.82 108.37,17.49 107.28,17.28 L106.98,17.21 L106.77,17.13 C106.77,17.13 104.15,16.17 99.37,18.83 L97.03,20.13 L95.49,17.95 C95.04,17.18 94.29,16.66 93.42,16.5 Z" id="Shape" fill="#231F20"></path>
                <path d="M65.54,50.22 C54.63,50.42 45.63,41.74 45.43,30.84 C45.23,19.93 53.91,10.93 64.81,10.73 C65.05,10.73 65.29,10.73 65.54,10.73 C68.33,10.66 71.08,11.45 73.42,12.97 C75.01,11.7 77,11.02 79.03,11.05 C83.73,11.05 87.53,14.86 87.54,19.56 L87.54,41.54 C87.53,46.23 83.73,50.04 79.03,50.04 C77.14,50.04 75.33,49.32 73.95,48.04 C71.4,49.52 68.49,50.28 65.54,50.22 Z M65.54,16.68 C57.93,16.85 51.89,23.16 52.06,30.77 C52.22,38.15 58.17,44.09 65.54,44.25 C68.43,44.25 70.89,43.34 72.15,41.82 L75.16,38.15 L77.16,42.45 C77.39,42.94 78.02,44.07 79.03,44.07 C80.43,44.07 81.57,42.93 81.58,41.53 L81.58,19.57 C81.58,18.17 80.44,17.03 79.03,17.02 C78.05,16.92 77.11,17.43 76.66,18.31 L75,22.32 L71.85,19.32 C69.8,17.4 68.1,16.68 65.54,16.68 Z M65.54,39.17 C60.74,39.17 56.85,35.28 56.85,30.48 C56.85,25.68 60.74,21.79 65.54,21.79 C70.34,21.79 74.23,25.68 74.23,30.48 C74.23,35.28 70.34,39.17 65.54,39.17 Z M65.54,27.73 C64.02,27.73 62.79,28.96 62.79,30.48 C62.79,32 64.02,33.23 65.54,33.23 C67.06,33.23 68.29,32 68.29,30.48 C68.29,30.48 68.29,30.48 68.29,30.47 C68.28,28.95 67.05,27.73 65.54,27.73 Z" id="Shape" fill="#231F20"></path>
                <path d="M25.77,50.1 C12.05,50.1 0.93,38.98 0.93,25.26 C0.93,11.54 12.05,0.42 25.77,0.42 C31.66,0.42 39.13,1.13 44.36,6.68 C47.59,10.09 47.44,15.47 44.04,18.69 C44.04,18.69 44.03,18.7 44.03,18.7 C43.71,19 43.37,19.28 43.01,19.52 C44.57,20.59 45.85,22 46.76,23.66 C49.33,28.54 49.15,34.41 46.27,39.12 C41.82,46.2 34.54,50.1 25.77,50.1 Z M25.77,6.37 C15.34,6.37 6.89,14.82 6.89,25.25 C6.89,35.68 15.34,44.13 25.77,44.13 C32.45,44.13 37.9,41.22 41.22,35.95 C42.95,33.08 43.07,29.52 41.53,26.55 C40.71,24.86 39.03,23.74 37.15,23.65 L28.4,23.65 L28.07,23.65 C26.65,23.74 25.58,24.96 25.67,26.38 C25.75,27.7 26.83,28.74 28.15,28.79 C28.26,28.8 28.36,28.8 28.47,28.79 L28.67,28.79 L28.87,28.79 L34.37,28.79 L39.8,28.79 L36.88,33.36 C34.51,37.01 30.57,39.02 25.77,39.02 C18.15,39.02 11.97,32.84 11.97,25.22 C11.97,17.6 18.15,11.42 25.77,11.42 L26.87,11.42 C28.87,11.42 31.46,11.69 35.56,13.68 C36.58,14.25 37.7,14.62 38.86,14.76 C39.26,14.77 39.64,14.62 39.92,14.34 C40.94,13.38 40.99,11.78 40.03,10.76 C40.03,10.76 40.02,10.75 40.02,10.75 C36.34,6.87 30.48,6.37 25.77,6.37 Z M26.87,17.41 L25.77,17.41 C21.44,17.44 17.96,20.97 17.9799142,25.3 C18,28.14 19.55,30.74 22.03,32.11 C18.75,28.73 18.83,23.33 22.21,20.05 C23.8,18.5 25.93,17.64 28.15,17.64 L29.23,17.64 C28.46,17.47 27.66,17.39 26.87,17.41 Z" id="Shape" fill="#231F20"></path>
                <path d="M107.88,14.02 C106.87,13.81 105.83,13.72 104.8,13.73 C103.09,13.73 100.23,14.73 97.93,16.96 C97.56,14.76 95.65,13.16 93.42,13.1798146 C90.37,13.1798146 87.9,15.65 87.9,18.7 L87.9,41.37 C88.01,44.42 90.56,46.81 93.61,46.7 C96.51,46.6 98.84,44.27 98.94,41.37 L98.94,31.98 C98.94,31.93 98.94,31.88 98.94,31.83 C98.87,30.23 99.09,26.44 102.54,25.64 C103.74,25.43 104.97,25.34 106.19,25.37 L106.76,25.37 C109.82,25.37 112.31004,22.88 112.31004,19.82 C112.32,17.19 110.45,14.54 107.88,14.02 Z" id="Path" fill="url(#linearGradient-1)"></path>
                <path d="M37.16,20.32 C34.15,20.32 28.47,20.32 28.23,20.32 L28.15,20.32 C25.08,20.32 22.6,22.81 22.6,25.87 C22.6,28.94 25.09,31.42 28.15,31.42 C28.39,31.42 28.62,31.4 28.86,31.37 L34.37,31.37 C32.07,34.96 28.43,35.72 25.77,35.72 C19.8,35.87 14.84,31.15 14.69,25.18 C14.54,19.21 19.26,14.25 25.23,14.1 C25.41,14.1 25.59,14.1 25.77,14.1 L26.87,14.1 C28.53,14.1 30.71,14.33 34.28,16.06 C35.7,16.83 37.27,17.29 38.88,17.4 C40.04,17.41 41.15,16.97 41.99,16.17 C44.21,14.07 44.3,10.58 42.2,8.36 C37.72,3.64 31.07,3.01 25.77,3.01 C13.7,2.8 3.74,12.41 3.53,24.48 C3.32,36.55 12.93,46.51 25.01,46.72 C25.26,46.72 25.52,46.72 25.77,46.72 C33.48,46.72 39.86,43.33 43.75,37.16 C46.07,33.38 46.22,28.65 44.14,24.73 C42.61,21.99 40,20.32 37.16,20.32 Z" id="Path" fill="url(#linearGradient-2)"></path>
                <path d="M79.03,13.7 C76.84,13.6 74.81,14.84 73.91,16.83 C71.32,14.36 68.86,13.35 65.54,13.35 C56.28,13.35 48.77,20.85 48.75999,30.11 C48.75,39.37 56.25999,46.88 65.52,46.89 C65.52,46.89 65.53,46.89 65.53,46.89 C69.35,46.89 72.63,45.55 74.44,43.37 C75.42,45.47 77.11,46.71 79.02,46.71 C82.07,46.71 84.54,44.23 84.55,41.18 L84.55,19.22 C84.55,16.17 82.08,13.7 79.03,13.7 Z M65.54,24.39 C68.7,24.39 71.27,26.95 71.27,30.11 C71.27,33.27 68.71,35.84 65.55,35.84 C62.39,35.84 59.82,33.28 59.82,30.12 C59.82,30.12 59.82,30.12 59.82,30.11 C59.82,26.96 62.38,24.4 65.54,24.39 L65.54,24.39 Z" id="Shape" fill="url(#linearGradient-3)"></path>
                <path d="M35.44,20.32 C32.43,20.32 28.48,20.32 28.24,20.32 L28.16,20.32 C25.09,20.32 22.61,22.81 22.61,25.87 C22.61,28.94 25.1,31.42 28.16,31.42 C28.4,31.42 28.63,31.4 28.87,31.37 L34.38,31.37 C32.08,34.96 28.44,35.72 25.78,35.72 C19.81,35.87 14.85,31.15 14.7,25.18 C14.55,19.21 19.27,14.25 25.24,14.1 C25.42,14.1 25.6,14.1 25.78,14.1 L26.88,14.1 C28.54,14.1 30.72,14.33 34.29,16.06 C35.71,16.83 37.28,17.29 38.89,17.4 C40.05,17.41 41.16,16.97 42,16.17 C44.22,14.07 44.31,10.58 42.21,8.36 C37.73,3.64 31.08,3.01 25.78,3.01 C13.75,3.01 5.07,12.81 4.95,24.86 C4.83,36.22 13.72,44.65 25.78,44.65 C33.49,44.65 38.31,41.38 41.34,37.16 C44.26,33.08 44.5,27.86 42.78,24.73 C41.28,22.06 38.49,20.38 35.44,20.32 Z" id="Path" fill="url(#linearGradient-4)" opacity="0.3"></path>
                <path d="M122.36,50.96 C117.66,50.96 113.86,47.15 113.85,42.45 L113.85,27.93 C109.38,26.48 106.94,21.68 108.39,17.21 C109.23,14.62 111.26,12.6 113.85,11.75 C114.06,7.06 118.04,3.43 122.73,3.64 C127.1,3.84 130.61,7.33 130.84,11.7 C135.34,13.06 137.88,17.81 136.52,22.3 C135.7,25.02 133.56,27.16 130.84,27.98 L130.84,42.45 C130.84,47.14 127.05,50.94 122.36,50.96 Z M116.49,17.3 C115.09,17.23 113.89,18.31 113.82,19.71 C113.75,21.11 114.83,22.31 116.23,22.38 C116.32,22.38 116.4,22.38 116.49,22.38 L119.83,22.38 L119.83,42.42 C119.76,43.82 120.84,45.02 122.24,45.09 C123.64,45.16 124.84,44.08 124.91,42.68 C124.91,42.59 124.91,42.51 124.91,42.42 L124.91,22.39 L128.41,22.39 C129.81,22.32 130.89,21.12 130.82,19.72 C130.75,18.42 129.71,17.37 128.41,17.31 L124.91,17.31 L124.91,12.09 C124.84,10.69 123.64,9.61 122.24,9.68 C120.94,9.75 119.89,10.79 119.83,12.09 L119.83,17.31 L116.49,17.3 Z" id="Shape" fill="#231F20"></path>
                <path d="M142.37,50.44 C137.68,50.44 133.87,46.63 133.86,41.94 L133.86,22.26 C133.86,17.56 137.67,13.75 142.37,13.75 C147.07,13.75 150.88,17.56 150.88,22.26 L150.88,41.94 C150.87,46.63 147.07,50.43 142.37,50.44 Z M142.37,19.7 C140.97,19.7 139.83,20.84 139.83,22.24 L139.83,22.24 L139.83,41.92 C139.83,43.32 140.97,44.46 142.37,44.46 C143.77,44.46 144.91,43.32 144.91,41.92 L144.91,22.26 C144.91,20.86 143.77,19.72 142.37,19.72 L142.37,19.72 L142.37,19.7 Z" id="Shape" fill="#231F20"></path>
                <path d="M142.55,17.22 C137.91,17.22 134.14,13.45 134.14,8.81 L134.14,8.64 C134.14,3.99 137.91,0.23 142.55,0.23 C147.2,0.23 150.96,4 150.96,8.64 L150.96,8.81 C150.95,13.45 147.19,17.21 142.55,17.22 Z M142.55,6 C141.12,6.04 139.97,7.2 139.95,8.63 L139.95,8.8 C139.95,10.25 141.13,11.43 142.58,11.43 C144.03,11.43 145.21,10.25 145.21,8.8 L145.21,8.63 C145.19,7.17 144.01,6 142.55,6 Z" id="Shape" fill="#231F20"></path>
                <path d="M169.21,50.6100231 C157.89,50.62 148.7,41.45 148.689992,30.13 C148.68,18.81 157.85,9.62 169.17,9.61 C174.62,9.61 179.86,11.77 183.71,15.64 C183.91,15.85 184.11,16.05 184.31,16.31 C187.49,19.76 187.27,25.13 183.82,28.31 C183.42,28.68 182.99,29 182.54,29.29 C183.02,29.51 183.49,29.77 183.92,30.08 C187.76,32.78 188.7,38.08 186.01,41.93 C182.16,47.38 175.89,50.62 169.21,50.6100231 Z M169.21,15.5799513 C161.18,15.5799513 154.67,22.09 154.67,30.12 C154.67,38.15 161.18,44.66 169.21,44.66 C173.96,44.66 178.41,42.34 181.13,38.45 C181.94,37.3 181.66,35.71 180.51,34.9 C180.08,34.6 179.57,34.44 179.05,34.44 C178.22,34.44 177.44,34.85 176.96,35.53 C173.97,39.81 168.08,40.86 163.8,37.87 C159.52,34.88 158.47,28.99 161.46,24.71 C164.45,20.43 170.34,19.38 174.62,22.37 C175.07,22.69 175.5,23.04 175.89,23.43 C176,23.53 176.08,23.62 176.18,23.72 C176.66,24.24 177.34,24.54 178.05,24.54 C178.69,24.54 179.3,24.3 179.77,23.87 C180.8,22.92 180.87,21.32 179.93,20.28 C179.78,20.12 179.64,19.97 179.5,19.83 C176.77,17.1 173.06,15.57 169.21,15.5799513 Z M169.21,26.62 C167.28,26.62 165.72,28.19 165.72,30.12 C165.72,32.05 167.29,33.61 169.22,33.61 C170.37,33.61 171.44,33.05 172.09,32.11 C172.75,31.17 173.6,30.37 174.58,29.76 C173.52,29.29 172.58,28.61 171.8,27.76 L171.68,27.64 C171.01,26.98 170.13,26.62 169.21,26.62 Z" id="Shape" fill="#231F20"></path>
                <path d="M128.4,14.34 L127.88,14.34 L127.88,12.1 C127.99,9.05 125.6,6.49 122.55,6.39 C119.5,6.28 116.94,8.67 116.84,11.72 C116.84,11.85 116.84,11.98 116.84,12.1 L116.84,14.34 L116.5,14.34 C113.45,14.23 110.89,16.62 110.79,19.67 C110.68,22.72 113.07,25.28 116.12,25.38 C116.25,25.38 116.38,25.38 116.5,25.38 L116.84,25.38 L116.84,42.46 C116.95,45.51 119.5,47.9 122.55,47.79 C125.45,47.69 127.78,45.36 127.88,42.46 L127.88,25.39 L128.4,25.39 C131.45,25.28 133.84,22.73 133.73,19.68 C133.63,16.77 131.3,14.45 128.4,14.34 Z" id="Path" fill="url(#linearGradient-5)"></path>
                <path d="M142.37,16.4 C139.32,16.4 136.85,18.88 136.84,21.93 L136.84,41.6 C136.84,44.65 139.32,47.12 142.37,47.12 C145.42,47.12 147.89003,44.65 147.89003,41.6 L147.89003,21.92 C147.9,18.87 145.43,16.4 142.37,16.4 Z" id="Path" fill="url(#linearGradient-6)"></path>
                <path d="M182.21,32.12 C179.72,30.37 176.28,30.97 174.52,33.46 C172.47,36.39 168.43,37.1 165.5,35.05 C163.77,33.84 162.74,31.86 162.74,29.75 C162.8,26.2 165.66,23.34 169.21,23.28 C171.85,23.17 173.89,25.28 173.98,25.38 C175.98,27.69 179.47,27.94 181.77,25.94 C184.08,23.94 184.33,20.45 182.33,18.15 C182.26,18.07 182.19,17.99 182.11,17.92 C181.94,17.73 181.76,17.55 181.59,17.38 C174.75,10.54 163.66,10.54 156.81,17.38 C149.96,24.22 149.97,35.31 156.81,42.16 C163.65,49 174.74,49 181.59,42.16 C182.31,41.44 182.97,40.65 183.56,39.81 C185.3,37.29 184.69,33.87 182.21,32.12 Z" id="Path" fill="url(#linearGradient-7)"></path>
                <path d="M79.03,13.7 C76.84,13.6 74.81,14.84 73.91,16.83 C71.32,14.36 68.86,13.35 65.54,13.35 C56.29,13.35 49.57,20.55 50.17,29.77 C50.77,38.99 57.65,44.47 65.54,44.47 C68.98,44.43 72.24,42.89 74.45,40.26 C75.43,42.36 77.12,43.95 79.03,43.95 C82.08,43.95 84.56,41.13 84.56,38.08 L84.56,19.22 C84.55,16.17 82.08,13.7 79.03,13.7 Z M65.54,24.39 C68.7,24.39 71.27,26.95 71.27,30.11 C71.27,33.27 68.71,35.84 65.55,35.84 C62.39,35.84 59.82,33.28 59.82,30.12 C59.82,30.12 59.82,30.12 59.82,30.11 C59.82,26.96 62.38,24.4 65.54,24.39 L65.54,24.39 Z" id="Shape" fill="url(#linearGradient-8)" opacity="0.3"></path>
                <path d="M107.88,14.38 C106.87,14.17 105.83,14.08 104.8,14.09 C102.31,14.19 99.91,15.07 97.93,16.6 C96.98,14.55 95.22,13.18 93.42,13.18 C90.37,13.18 87.9,15.65 87.9,18.7 L87.9,39.3 C87.9,42.35 90.37,44.82 93.42,44.82 C96.47,44.82 98.25,42.34 98.25,39.3 L98.25,31.95 C98.25,31.9 98.25,31.85 98.25,31.8 C98.18,30.2 99.09,26.41 102.54,25.61 C103.74,25.4 104.97,25.31 106.19,25.34 L106.76,25.34 C109.83,25.26 112.25,22.71 112.17,19.64 C112.1,17.11 110.34,14.95 107.88,14.38 Z" id="Path" fill="url(#linearGradient-9)" opacity="0.3"></path>
                <path d="M128.4,14.34 L127.88,14.34 L127.88,12.1 C127.99,9.05 125.6,6.49 122.55,6.39 C119.5,6.28 116.94,8.67 116.84,11.72 C116.84,11.85 116.84,11.98 116.84,12.1 L116.84,14.34 L116.5,14.34 C113.45,14.23 110.89,16.62 110.79,19.67 C110.68,22.72 113.07,25.28 116.12,25.38 C116.25,25.38 116.38,25.38 116.5,25.38 L116.84,25.38 L116.84,39.68 C116.84,42.73 119.32,45.89 122.37,45.89 C125.42,45.89 127.89,42.72 127.89,39.68 L127.89,25.38 L128.41,25.38 C131.46,25.27 133.85,22.72 133.74,19.67 C133.63,16.77 131.3,14.45 128.4,14.34 Z" id="Path" fill="url(#linearGradient-10)" opacity="0.3"></path>
                <path d="M142.37,16.4 C139.32,16.4 136.85,18.88 136.84,21.93 L136.84,39.53 C136.84,42.58 139.32,45.05 142.37,45.05 C145.42,45.05 147.89003,42.58 147.89003,39.53 L147.89003,21.93 C147.9,18.87 145.43,16.4 142.37,16.4 Z" id="Path" fill="url(#linearGradient-11)" opacity="0.3"></path>
                <path d="M181.17,31.43 C180.23,30.76 180.18,31.12 179.05,31.12 C177.25,31.12 175.55,31.99 174.52,33.47 C172.48,36.4 168.44,37.13 165.51,35.08 C162.58,33.04 161.85,29 163.9,26.07 C165.94,23.14 169.98,22.41 172.91,24.46 C173.22,24.68 173.52,24.92 173.79,25.19 C173.86,25.25 173.92,25.32 173.98,25.39 C175.98,27.7 179.47,27.95 181.77,25.95 C184.08,23.95 184.33,20.46 182.33,18.16 C182.26,18.08 182.19,18 182.11,17.93 C181.94,17.74 181.76,17.56 181.59,17.39 C178.31,14.09 173.85,12.24 169.2,12.2598395 C159.55,12.2598395 152.72,19.78 152.72,29.43 C152.72,39.08 160.48,45.22 169.2,45.22 C174.91,45.22 179.22,43.46 182.52,38.77 C184.2,36.49 183.7,33.28 181.42,31.61 C181.35,31.55 181.26,31.49 181.17,31.43 Z" id="Path" fill="url(#linearGradient-12)" opacity="0.3"></path>
                <path d="M142.55,2.77 C139.5,2.77 137.02,5.24 137.02,8.3 C137.02,8.3 137.02,8.3 137.02,8.3 L137.02,8.47 C137.13,11.52 139.68,13.91 142.73,13.8 C145.63,13.7 147.96,11.37 148.06003,8.47 L148.06003,8.3 C148.07,5.24 145.6,2.77 142.55,2.77 C142.55,2.77 142.55,2.77 142.55,2.77 Z" id="Path" fill="url(#linearGradient-13)"></path>
                <path d="M147.37,7.69 C147.37,10.31 145.25,12.43 142.63,12.43 C140.01,12.43 137.89,10.31 137.89,7.69 C137.89,5.07 140.01,2.94996477 142.63,2.94996477 C145.24,2.94 147.37,5.06 147.37,7.69 C147.37,7.69 147.37,7.69 147.37,7.69 Z" id="Path" fill="url(#linearGradient-14)" opacity="0.6"></path>
                <path d="M192.57,11.02 C189.6,13.28 189.03,17.52 191.29,20.49 L191.42,20.65 C193.68,23.62 197.92,24.19 200.89,21.93 C203.86,19.67 204.43,15.43 202.17,12.46 L202.05,12.3 C199.78,9.34 195.54,8.77 192.57,11.02 Z" id="Path" fill="#231F20"></path>
                <path d="M253.83,13.76 C253.34,11.56 251.83,10.06 249.25,9.28 L249.2,9.28 C244.23,8.53 243.19,11.51 242.06,14.67 C241.69,15.79 241.25,16.88 240.72,17.93 C236.42,14.11 230.65,12.36 224.95,13.16 C222.04,13.64 218.11,15.16 215.96,19.54 C214.11,23.07 214.43,27.35 216.79,30.56 C215.77,30.3 214.7,30.3 213.68,30.56 C212.03,30.94 210.64,32.04 209.88,33.55 C209.67,34.02 209.49,34.53 209.3,35.07 C208.87,36.32 208.41,37.61 207.61,38.12 L207.56,38.17 C207,38.7 206.48,38.9 206.03,38.75 C205.36,38.54 203.3,37.97 203.06,32.07 C203.03,31.15 202.84,29.3 202.77,28.44 C202.62,26.58 202.5,24.98 201.57,23.96 C199.62,21.3 195.88,20.72 193.22,22.67 C191.63,23.83 190.72,25.7 190.78,27.66 C190.69,30.97 191.01,34.28 191.75,37.51 C191.87,38.05 191.88,38.55 190.59,38.49 C190.23,38.47 189.87,38.49 189.52,38.54 C188.17,38.76 186.91,39.4 185.93,40.36 C183.48,42.78 183.22,46.65 185.33,49.37 L185.33,49.37 C187.61,52.38 191.9,52.98 194.92,50.71 C195.92,49.94 196.68,48.89 197.11,47.7 C199.5,49.92 203.28,51.17 206.46,51.26 C209.73,51.34 212.91,50.14 215.31,47.92 C218.59,50.78 222.8,52.33 227.15,52.3004274 L227.2,52.3004274 C233.01,52.17 238.14,49.95 241.65,46.04 C245.33,41.94 247.07,36.15 246.55,29.73 C249.28,27.18 255.05,19.25 253.83,13.76 Z M228.75,40.2 C226.08,40.72 223.63,39.87 222.34,37.99 L222.34,37.99 C221.77,37.12 221.34,36.17 221.06,35.17 C220.91,34.71 220.75,34.26 220.59,33.83 C224.22,35.93 229.28,36.71 234.08,35.89 C233.2,38.18 231.16,39.83 228.75,40.2 Z" id="Shape" fill="#231F20"></path>
                <path d="M248.99,12.42 C247.53,11.97 245.98,12.79 245.52,14.24 C244.6,17.36 242.92,20.2 240.62,22.49 L240.62,22.49 C239.06,20.39 236.99,18.71 234.61,17.62 C228.66,14.87 221.97,15.93 219.37,20.03 C217.61,22.8 217.49,25.78 219.02,28.18 C220.86,31.05 224.79,32.71 229.42,32.71 C230.33,32.71 231.24,32.65 232.15,32.52 C234.14,32.25 236.09,31.71 237.94,30.9 L237.94,30.9 C238.04,32.94 237.76,34.98 237.1,36.91 C236.44,38.92 235.08,40.64 233.26,41.74 C231.37,42.94 229.16,43.54 226.93,43.48 C224.96,43.47 223.04,42.81 221.47,41.61 C219.63,40.07 218.37,37.95 217.9,35.6 C217.54,34.1 216.03,33.18 214.54,33.55 C213.58,33.78 212.81,34.51 212.52,35.46 L212.45,35.65 C212.45,35.74 212.4,35.79 212.38,35.86 C211.04,40.67 207.03,41.79 205.55,41.79 C202.8,41.79 199.54,39.19 199.54,27.34 L199.54,27.34 C199.48,25.81 198.19,24.61 196.66,24.67 C195.09,24.71 193.84,25.98 193.82,27.54 L193.82,27.54 C193.82,46.29 202.55,47.58 205.33,47.92 C207.76,48.21 211.62,47.39 213.57,45.39 C214.22,44.71 214.8,43.97 215.29,43.18 L215.29,43.18 C216.06,44.24 216.98,45.2 218.01,46.01 C220.5,47.94 223.54,49.03 226.7,49.1 L227.18,49.1 C230.37,49.09 233.5,48.18 236.19,46.47 C239.11,44.65 241.3,41.86 242.36,38.59 C243.66,34.39 243.74,30.79 243.03,27.77 L243.03,27.77 C246.74,24.68 249.45,20.54 250.81,15.9 C251.27,14.43 250.46,12.87 249,12.4 C249,12.42 248.99,12.42 248.99,12.42 Z M235.98,25.66 C234.52,26.33 232.96,26.78 231.36,27 C227.61,27.5 224.5,26.47 223.67,25.18 C223.54,24.96 223.16,24.38 224.03,23.02 C224.56,22.19 225.99,21.68 227.76,21.68 C229.3,21.69 230.82,22.04 232.22,22.69 C233.7,23.36 234.99,24.38 235.98,25.66 L235.98,25.66 Z" id="Shape" fill="url(#linearGradient-15)"></path>
                <circle id="Oval" fill="url(#linearGradient-16)" cx="190.63" cy="45.33" r="3.92"></circle>
                <circle id="Oval" fill="url(#linearGradient-17)" cx="196.69" cy="16.54" r="3.92"></circle>
                <path d="M248.99,11.97 C247.53,11.52 245.98,12.34 245.52,13.79 C244.6,16.91 242.92,19.75 240.62,22.04 L240.62,22.04 C239.06,19.94 236.99,18.26 234.61,17.17 C228.66,14.42 221.97,15.48 219.37,19.58 C217.61,22.35 217.49,25.33 219.02,27.73 C220.86,30.6 224.79,32.26 229.42,32.26 C230.33,32.26 231.24,32.2 232.15,32.07 C234.14,31.8 236.09,31.26 237.94,30.45 L237.94,30.45 C238.04,32.49 237.76,34.53 237.1,36.46 C236.44,38.47 235.08,40.19 233.26,41.29 C231.37,42.49 229.16,43.09 226.93,43.03 C224.96,43.02 223.04,42.36 221.47,41.16 C219.63,39.62 218.37,37.5 217.9,35.15 C217.54,33.65 216.03,32.73 214.54,33.1 C213.58,33.33 212.81,34.06 212.52,35.01 L212.45,35.2 C212.45,35.29 212.4,35.34 212.38,35.41 C211.04,40.22 207.03,41.34 205.55,41.34 C202.8,41.34 199.54,38.74 199.54,26.89 L199.54,26.89 C199.48,25.36 198.19,24.16 196.66,24.22 C195.09,24.26 193.84,25.53 193.82,27.09 L193.82,27.09 C193.82,45.84 202.55,47.13 205.33,47.47 C207.76,47.76 211.62,46.94 213.57,44.94 C214.22,44.26 214.8,43.52 215.29,42.73 L215.29,42.73 C216.06,43.79 216.98,44.75 218.01,45.56 C220.5,47.49 223.54,48.58 226.7,48.65 L227.18,48.65 C230.37,48.64 233.5,47.73 236.19,46.02 C239.11,44.2 241.3,41.41 242.36,38.14 C243.66,33.94 243.74,30.34 243.03,27.32 L243.03,27.32 C246.74,24.23 249.45,20.09 250.81,15.45 C251.27,13.98 250.46,12.42 249,11.95 C249,11.97 248.99,11.97 248.99,11.97 Z M235.98,25.21 C234.52,25.88 232.96,26.33 231.36,26.55 C227.61,27.05 224.5,26.02 223.67,24.73 C223.54,24.51 223.16,23.93 224.03,22.57 C224.56,21.74 225.99,21.23 227.76,21.23 C229.3,21.24 230.82,21.59 232.22,22.24 C233.7,22.91 234.99,23.93 235.98,25.21 L235.98,25.21 Z" id="Shape" fill="url(#linearGradient-18)"></path>
                <circle id="Oval" fill="url(#linearGradient-19)" cx="190.73" cy="44.88" r="3.92"></circle>
                <circle id="Oval" fill="url(#linearGradient-17)" cx="196.69" cy="16.54" r="3.92"></circle>
                <circle id="Oval" fill="url(#linearGradient-20)" cx="196.69" cy="16.21" r="3.92"></circle>
            </g>
        </g>
    </g>
</svg>