<?xml version="1.0" encoding="utf-8"?>
<!-- Generator: Adobe Illustrator 24.0.1, SVG Export Plug-In . SVG Version: 6.00 Build 0)  -->
<svg version="1.1" id="Camada_1" xmlns="http://www.w3.org/2000/svg" xmlns:xlink="http://www.w3.org/1999/xlink" x="0px" y="0px"
	 viewBox="0 0 262 330" style="enable-background:new 0 0 262 330;" xml:space="preserve">
<style type="text/css">
	.st0{display:none;}
	.st1{display:inline;}
	.st2{fill:#2BB2FC;}
	.st3{fill:none;stroke:#2BB2FC;stroke-miterlimit:10;}
	.st4{clip-path:url(#SVGID_2_);}
	.st5{fill:#FFBF1F;}
	.st6{fill:#012442;}
	.st7{fill:#FFDE76;}
	.st8{fill:#FFB53E;}
	.st9{fill:none;}
	.st10{fill:#FFFFFF;}
</style>
<title>36</title>
<g id="Camada_2_1_" class="st0">
	<g class="st1">
		<g>
			<path class="st2" d="M261,1v328H1V1H261 M262,0H0v330h262V0L262,0z"/>
		</g>
		<line class="st3" x1="1.4" y1="139.5" x2="261.1" y2="139.5"/>
		<line class="st3" x1="0.8" y1="201.8" x2="261.1" y2="201.8"/>
		<line class="st3" x1="261.4" y1="242.8" x2="1.1" y2="242.8"/>
		<ellipse class="st3" cx="131" cy="161.8" rx="84.3" ry="80.6"/>
		<ellipse class="st3" cx="83.8" cy="139.5" rx="12.5" ry="12.5"/>
		<ellipse class="st3" cx="179.7" cy="139.5" rx="12.5" ry="12.5"/>
		<ellipse class="st3" cx="131" cy="198.7" rx="131" ry="131.3"/>
		<line class="st3" x1="131" y1="329.3" x2="131" y2="1.1"/>
	</g>
</g>
<g>
	<g>
		<defs>
			<path id="SVGID_1_" d="M262.2-1H-0.2v197.7H0v0.5c-0.6,72.4,57.5,131.6,129.9,132.2s131.6-57.5,132.2-129.9c0-0.8,0-1.5,0-2.3
				c0-0.2,0-0.3,0-0.5h0.1L262.2-1z"/>
		</defs>
		<clipPath id="SVGID_2_">
			<use xlink:href="#SVGID_1_"  style="overflow:visible;"/>
		</clipPath>
		<g class="st4">
			<g>
				<circle class="st5" cx="131.3" cy="194.7" r="131.1"/>
			</g>
			<g>
				<g>
					<g>
						<path class="st6" d="M230.7,348.8c-11,0-20.8-7.5-23.4-18.7c-11.9-52.3-33.3-72.1-33.5-72.3c0.2,0.2,0.3,0.3,0.3,0.3
							l30.9-36.8c3.4,2.8,33.6,29.8,49.1,98.1c2.9,12.9-5.1,25.8-18.1,28.7C234.3,348.6,232.5,348.8,230.7,348.8z"/>
					</g>
				</g>
				<g>
					<g>
						<g>
							<path class="st7" d="M230.7,339.8c-6.8,0-13-4.7-14.6-11.7c-6.7-29.2-16.2-48.6-23-59.8c-7.4-12-13.2-17.2-13.3-17.2l0.1,0.1
								l19.3-23c1.3,1.1,31,26.6,46.2,93.2c1.8,8.1-3.2,16.1-11.3,18C233,339.7,231.8,339.8,230.7,339.8z"/>
						</g>
					</g>
				</g>
				<g>
					<g>
						<path class="st6" d="M31.6,348.8c-1.8,0-3.6-0.2-5.4-0.6c-12.9-2.9-21-15.8-18.1-28.7c15.6-68.3,45.8-95.3,49.1-98.1
							l30.9,36.8c0,0,0.1-0.1,0.3-0.3c-0.2,0.2-21.6,20-33.5,72.3C52.4,341.2,42.5,348.8,31.6,348.8z"/>
					</g>
				</g>
				<g>
					<g>
						<g>
							<path class="st7" d="M31.6,339.8c-1.1,0-2.2-0.1-3.3-0.4c-8.1-1.8-13.1-9.9-11.3-18c15.2-66.6,44.9-92.2,46.2-93.2l19.3,23
								l0.1-0.1c-0.1,0.1-5.9,5.3-13.3,17.2c-6.8,11.1-16.4,30.5-23,59.8C44.6,335.1,38.4,339.8,31.6,339.8z"/>
						</g>
					</g>
				</g>
				<g>
					<g>
						<path class="st7" d="M165.8,223l-1-5.9h-67l-1,5.9c-0.3,1.6-0.4,3.2-0.4,4.7c0,17.4,15.6,31.6,34.8,31.6s34.8-14.2,34.8-31.6
							C166.2,226.1,166.1,224.5,165.8,223z"/>
					</g>
				</g>
				<g>
					<g>
						<path class="st8" d="M172.7,231.6c-4.7,2.8-9.6,5.2-14.6,7.2c0,0.3,0,0.7,0,1c0,13.6-12.5,24.6-27.8,24.6
							c-14.2,0-26-9.5-27.6-21.7c-6-2.5-11.4-6.3-15.8-11.8c-34.3,34.3-32.5,127.2-32.5,127.2l156.8-0.8
							C211.2,357.2,212.7,272.3,172.7,231.6z"/>
					</g>
				</g>
				<g>
					<g>
						<g>
							<g>
								<path class="st8" d="M182.1,279.6l48.4-24.6c-0.3-0.7-22.5-47-56.5-41.1l-7,1.1c-10.8,4.4-9.6,19.3-5.3,30.1L182.1,279.6z"
									/>
							</g>
						</g>
					</g>
				</g>
				<g>
					<g>
						<g>
							<path class="st6" d="M202.3,275c-1.5,0-3-0.9-3.6-2.3c-0.9-2-0.1-4.4,2-5.3l26.4-12.2c-6.1-11.2-27.6-45.6-55.8-36.3
								c-2.1,0.7-4.4-0.4-5.1-2.5c-0.7-2.1,0.4-4.4,2.5-5.1c16.7-5.6,33.7,0.4,49.2,17.2c11.8,12.8,18.3,27.1,18.3,27.2l1.3,3.5
								l-33.6,15.5C203.4,274.9,202.8,275,202.3,275z"/>
						</g>
					</g>
				</g>
				<g>
					<g>
						<g>
							<g>
								<path class="st8" d="M80.2,279.6L31.9,255c0.3-0.7,22.5-47,56.5-41.1l7,1.1c10.8,4.4,9.6,19.3,5.3,30.1L80.2,279.6z"/>
							</g>
						</g>
					</g>
				</g>
				<g>
					<g>
						<g>
							<path class="st6" d="M64.1,275.9c-0.5,0-1.1-0.1-1.6-0.3l-37.7-16.4l1.3-3.5c0-0.1,6.5-14.4,18.3-27.2
								c15.5-16.8,32.5-22.8,49.2-17.2c2.1,0.7,3.2,3,2.5,5.1s-3,3.2-5.1,2.5c-28.1-9.3-49.6,24.9-55.8,36.2l30.3,13.2
								c2,0.9,3,3.2,2.1,5.3C67.1,275,65.6,275.9,64.1,275.9z"/>
						</g>
					</g>
				</g>
				<g>
					<g>
						<path class="st6" d="M157.9,224.1c0.2,1.3,0.3,2.7,0.3,4.1c0,15.4-12.5,27.8-27.8,27.8c-15.4,0-27.8-12.5-27.8-27.8
							c0-1.4,0.1-2.7,0.3-4.1L157.9,224.1 M164.8,216.1h-6.9h-55.1h-6.9l-1,6.8c-0.3,1.7-0.4,3.5-0.4,5.2
							c0,19.8,16.1,35.8,35.8,35.8c19.8,0,35.8-16.1,35.8-35.8c0-1.7-0.1-3.5-0.4-5.2L164.8,216.1L164.8,216.1z"/>
					</g>
				</g>
				<g>
					<g>
						<path class="st6" d="M208.3,351.7c-2.2,0-3.9-1.7-4-3.9c-1.5-54.4-14.2-93.7-14.4-94.1c-0.7-2.1,0.5-4.4,2.6-5
							c2.1-0.7,4.4,0.5,5,2.6c0.5,1.6,13.2,40.7,14.8,96.3c0.1,2.2-1.7,4-3.9,4.1C208.4,351.7,208.3,351.7,208.3,351.7z"/>
					</g>
				</g>
				<g>
					<g>
						<path class="st6" d="M55.7,351.7L55.7,351.7c-2.3-0.1-4-1.9-4-4.1c1.6-55.6,14.2-94.7,14.8-96.3c0.7-2.1,3-3.2,5-2.6
							c2.1,0.7,3.2,2.9,2.6,5c-0.1,0.4-12.8,39.7-14.4,94.1C59.6,350,57.9,351.7,55.7,351.7z"/>
					</g>
				</g>
				<g>
					<g>
						<g>
							<path class="st7" d="M209.3,157.9c0.1,41-34.4,70.7-79.5,70.9l0,0c-45.1,0.2-77.8-29.4-78-70.4l-0.3-49
								c-0.1-15.1,4.2-25.7,12.1-37.1c19.3-27.9,70-25.6,75-25.3c20.4,1.3,45.1,7.5,57.8,25.2c7.5,10.5,12.2,27.5,12.2,46.8
								L209.3,157.9z"/>
						</g>
					</g>
				</g>
				<g>
					<g>
						<path class="st6" d="M129.3,47.8c28.8,0,57.8,10.4,71.1,32.8c9.3,15.7,7.7,51.4,7.7,51.4c0.4,0,0.6,0,0.7,0c0,0,0,0,0.1,0
							c9.3,0,16.9,7.6,17,16.9c0,9.4-7.5,17-16.9,17c-0.1,0-0.5,0-1.1,0c-4.2,36.4-35.2,62-77,62.1c-0.1,0-0.2,0-0.4,0
							c-42.1,0-73.3-25.9-77.2-62.8c-1.4,0-2.3,0-2.4,0c0,0,0,0-0.1,0c-9.1,0-16.6-7.4-16.6-16.6c0-9.2,7.4-16.6,16.5-16.7
							c0.1,0,0.8,0,1.9,0l-0.1-7.3c0-4.5-0.3-35.3,7.1-47.1C71.8,58.3,100.4,47.8,129.3,47.8 M129.3,39.8v8V39.8
							c-15.7,0-31,2.9-44.1,8.3C70.8,54,59.6,62.8,52.9,73.4c-5.5,8.9-8.3,26-8.3,50.8v0.5v0.1l0,0c-4.2,1.1-8.1,3.3-11.2,6.5
							c-4.6,4.7-7.2,10.9-7.1,17.4c0,12,8.7,22,20.1,24.1c7.2,37.6,40.9,63.2,84.1,63.2h0.4c22.3-0.1,42.2-6.7,57.6-19.3
							c13.6-11.1,22.8-26.4,26.3-43.5c4.5-1.1,8.5-3.4,11.8-6.7c4.7-4.7,7.3-11,7.2-17.7c0-11.1-7.4-20.6-17.5-23.7
							c0-12-1.1-35.5-9-48.7c-7.1-12-18.7-21.7-33.5-28C160.7,42.8,145.3,39.8,129.3,39.8L129.3,39.8z"/>
					</g>
				</g>
				<g>
					<g>
						<g>
							<path class="st7" d="M83.2,148.5c0,8.4,5,15.4-3.1,16.5c-0.7,0.1-29.6,0.2-30.4,0.2c-9.2,0-16.6-7.4-16.7-16.6
								c0-9.2,7.4-16.6,16.5-16.7c0.8,0,24.1,0,24.8,0.1C82.6,133.1,83.2,140.1,83.2,148.5z"/>
						</g>
					</g>
				</g>
				<g>
					<g>
						<g>
							<path class="st7" d="M174.6,149.1c0,8.6-5,15.8,3.3,16.8c0.7,0.1,30.3,0,31,0c9.4,0,16.9-7.6,16.9-17s-7.6-16.9-17-16.9
								c-0.8,0-24.6,0.1-25.3,0.2C175.2,133.4,174.6,140.5,174.6,149.1z"/>
						</g>
					</g>
				</g>
			</g>
			<g>
				<g>
					<path class="st9" d="M116.5,136.3"/>
				</g>
			</g>
			<g>
				<path class="st10" d="M168.2,164.6c-24.7,3-52.5,3-75.3-0.4c0,0,6.9,33.8,37.6,33.8C165.1,198.1,168.2,164.6,168.2,164.6z"/>
			</g>
			<g>
				<path class="st6" d="M130.5,201.1c-32.7,0-40.4-35.9-40.5-36.2c-0.2-1,0.1-2,0.8-2.7c0.7-0.7,1.6-1,2.6-0.9
					c22.2,3.2,49.4,3.4,74.5,0.4c0.9-0.1,1.8,0.2,2.4,0.8c0.6,0.6,1,1.5,0.9,2.4C171.2,165.3,167.4,201.1,130.5,201.1z M97,167.8
					c1.1,3.1,2.9,7.5,5.8,11.8c6.8,10.2,16.1,15.4,27.7,15.4c25.2,0,32.3-18.8,34.1-27C141.8,170.5,117.6,170.4,97,167.8z"/>
			</g>
			<g id="olho_17_">
				<g>
					<g>
						<path class="st6" d="M91.3,132.9c0,5.8-4.6,10.5-10.4,10.5s-10.5-4.6-10.5-10.4c0-5.8,4.6-10.5,10.4-10.5
							C86.6,122.4,91.3,127.1,91.3,132.9z"/>
					</g>
				</g>
			</g>
			<g id="olho_10_">
				<g>
					<g>
						<path class="st6" d="M188.6,132.5c0,5.8-4.6,10.5-10.4,10.5c-5.8,0-10.5-4.6-10.5-10.4c0-5.8,4.6-10.5,10.4-10.5
							C183.9,122,188.6,126.7,188.6,132.5z"/>
					</g>
				</g>
			</g>
			<g>
				<path class="st10" d="M190.8,100c-1.5,0-2.8-1.2-3-2.7c-0.6-6-5.8-11.7-8.1-13.3c-1.3-1-1.6-2.8-0.7-4.2c1-1.3,2.8-1.6,4.2-0.7
					c3.7,2.7,9.8,9.8,10.5,17.6c0.2,1.7-1.1,3.1-2.7,3.3C191,100,190.9,100,190.8,100z"/>
			</g>
			<g>
				<path class="st10" d="M173.8,78.4c-0.6,0-1.1-0.2-1.6-0.5c-1.1-0.7-2.2-1.4-3.3-2c-1.4-0.8-1.9-2.7-1.1-4.1
					c0.8-1.4,2.7-1.9,4.1-1.1c1.2,0.7,2.3,1.4,3.5,2.2c1.4,0.9,1.8,2.8,0.9,4.2C175.7,78,174.8,78.4,173.8,78.4z"/>
			</g>
		</g>
	</g>
</g>
</svg>
